<?xml version="1.0" encoding="UTF-8"?>
<svg width="500" height="143" version="1.1" viewBox="0 0 500 143" xmlns="http://www.w3.org/2000/svg">
 <g transform="matrix(4.2493 0 0 4.2493 .004252 .51048)">
  <path d="m108.1 4.567c-1.054-3.12-2.895-4.567-5.34-4.567-2.515 0-4.286 1.363-5.382 4.567l-9.738 28.512h6.857l7.982-26.446 3.8 12.338h6.659zm-36.288-4.567c-10.188 0-13.1 4.848-13.1 16.708s2.909 16.708 13.1 16.708 13.083-4.848 13.083-16.708-2.911-16.708-13.083-16.708zm0 27.936c-6.211 0-6.352-4.553-6.352-11.228s0.14-11.242 6.352-11.242 6.337 4.567 6.337 11.242-0.142 11.223-6.337 11.223zm-25.444-23.369c-1.054-3.12-2.895-4.567-5.34-4.567-2.515 0-4.286 1.363-5.382 4.567l-9.738 28.512h6.857l7.982-26.446 3.8 12.338h6.659zm-31.582 0.998a41.862 41.862 0 0 1 6.745 0.562l0.59-5.129a34.018 34.018 0 0 0-8.558-1c-10.863 0-13.561 5.073-13.561 16.708s2.684 16.708 13.561 16.708a34.2 34.2 0 0 0 8.558-0.983l-0.6-5.143a41.572 41.572 0 0 1-6.731 0.562c-7.9 0-8.01-4.679-8.01-11.143-4e-3 -6.435 0.137-11.142 8.006-11.142z" fill="#000039"/>
  <path d="m108.44 26.025 2.17 7.054h7.054l-2.368-7.054zm-61.732 0 2.17 7.054h7.054l-2.368-7.054z" fill="#79bf89"/>
 </g>
</svg>
