<?xml version="1.0" encoding="UTF-8" standalone="no"?>
<!-- Created with Inkscape (http://www.inkscape.org/) -->

<svg
   width="365"
   height="500"
   viewBox="0 0 365.00001 500"
   version="1.1"
   id="SVGRoot"
   xml:space="preserve"
   xmlns="http://www.w3.org/2000/svg"
   xmlns:svg="http://www.w3.org/2000/svg"><defs
     id="defs21171" /><g
     id="g22564"
     style="display:inline"
     transform="matrix(5.1270273,0,0,5.1270273,2235.1124,1162.0254)"><path
       id="path21549"
       clip-path="none"
       style="fill:#001e50;fill-opacity:1;fill-rule:nonzero;stroke:none"
       transform="matrix(1.3333333,0,0,-1.3333333,-383.13237,-131.15528)"
       d="m 0,0 c 0.503,-0.255 1.092,-0.436 1.66,-0.436 0.568,0 0.814,0.17 0.814,0.5 0,0.309 -0.246,0.426 -0.707,0.543 l -0.675,0.16 c -0.717,0.17 -1.403,0.575 -1.403,1.512 0,1.011 0.804,1.65 2.142,1.65 0.782,0 1.328,-0.128 1.928,-0.373 L 3.363,2.534 C 2.902,2.705 2.378,2.843 1.874,2.843 1.328,2.843 1.092,2.683 1.092,2.375 1.092,2.076 1.328,1.97 1.756,1.853 L 2.41,1.693 C 3.234,1.491 3.877,1.065 3.877,0.16 c 0,-1.065 -0.857,-1.683 -2.174,-1.683 -0.889,0 -1.521,0.181 -2.131,0.49 z M -4.8616051,3.7692976 V 0.68129759 c 0,-0.671 0.247,-1.022 0.879,-1.022 0.481,0 0.867,0.266 1.092,0.437 V 3.7692976 h 1.446 v -5.132 h -1.168 l -0.192,0.49999999 h -0.022 c -0.289,-0.25499999 -0.803,-0.65999999 -1.606,-0.65999999 -1.232,0 -1.875,0.81999999 -1.875,2.05499999 V 3.7692976 Z M -11.083005,-0.031995 c 0.289,-0.17 0.664,-0.309 1.039,-0.309 0.8569997,0 1.2319997,0.628 1.2319997,1.544 0,0.916 -0.375,1.544 -1.2319997,1.544 -0.375,0 -0.75,-0.138 -1.039,-0.309 z m 0,6.122 v -2.693 h 0.021 c 0.311,0.223 0.75,0.532 1.4679997,0.532 1.488,0 2.259,-1.235 2.259,-2.726 0,-1.49 -0.771,-2.726 -2.259,-2.726 -0.7609997,0 -1.2639997,0.362 -1.6389997,0.618 h -0.021 l -0.204,-0.458 h -1.071 v 7.453 z m -4.240097,-2.3204037 h 1.446 v -5.132 h -1.446 z m 0.728,2.47 c 0.514,0 0.846,-0.33 0.846,-0.788 0,-0.458 -0.332,-0.788 -0.846,-0.788 -0.504,0 -0.836,0.33 -0.836,0.788 0,0.458 0.332,0.788 0.836,0.788 m -5.793401,-2.4703037 0.193,-0.5 h 0.021 c 0.3,0.266 0.835,0.66 1.649,0.66 1.211,0 1.907,-0.82 1.907,-2.055 v -3.237 h -1.446 v 3.088 c 0,0.671 -0.289,1.022 -0.921,1.022 -0.493,0 -0.889,-0.267 -1.114,-0.437 v -3.673 h -1.446 v 5.132 z m -3.8973,2.9598001 v -0.106 h -1.2 l -0.674,0.841 -0.664,-0.841 h -1.2 v 0.106 l 1.189,1.448 h 1.36 z m -1.939,-6.98400003 c 1.436,0 1.95,1.085 1.95,2.51200003 0,1.427 -0.514,2.513 -1.95,2.513 -1.445,0 -1.959,-1.086 -1.959,-2.513 0,-1.42700003 0.514,-2.51200003 1.959,-2.51200003 m 0,-1.26799997 c -2.431,0 -3.512,1.67199997 -3.512,3.78 0,2.108 1.081,3.78 3.512,3.78 2.41,0 3.502,-1.672 3.502,-3.78 0,-2.10800003 -1.092,-3.78 -3.502,-3.78 M 9.9049952,12.927098 c 0.5029998,-0.256 1.0919998,-0.437 1.6599998,-0.437 0.567,0 0.814,0.171 0.814,0.501 0,0.309 -0.247,0.426 -0.707,0.543 l -0.675,0.16 c -0.717,0.17 -1.4029998,0.575 -1.4029998,1.512 0,1.011 0.8029998,1.65 2.1419998,1.65 0.782,0 1.328,-0.128 1.928,-0.373 l -0.396,-1.022 c -0.461,0.17 -0.985,0.309 -1.489,0.309 -0.546,0 -0.782,-0.16 -0.782,-0.469 0,-0.298 0.236,-0.404 0.664,-0.521 l 0.654,-0.16 c 0.824,-0.202 1.467,-0.628 1.467,-1.533 0,-1.065 -0.857,-1.683 -2.174,-1.683 -0.889,0 -1.521,0.181 -2.1319998,0.49 z m -2.4840975,1.682205 c 0.011,0.053 0.011,0.107 0.011,0.16 0,0.575 -0.268,1.043 -1.082,1.043 -0.728,0 -1.092,-0.585 -1.124,-1.203 z m -2.195,-0.894 c 0.053,-0.724 0.525,-1.161 1.295,-1.161 0.6,0 1.147,0.139 1.65,0.32 l 0.332,-1.033 c -0.514,-0.245 -1.264,-0.437 -2.089,-0.437 -1.788,0 -2.656,1.225 -2.656,2.737 0,1.458 0.9,2.715 2.582,2.715 1.67,0 2.409,-1.012 2.409,-2.215 0,-0.33 -0.042,-0.745 -0.075,-0.926 z m -4.99030019,-1.1289 c 0.76,0 1.25299999,0.511 1.25299999,1.544 0,1.033 -0.49299999,1.544 -1.25299999,1.544 -0.739,0 -1.24200001,-0.511 -1.24200001,-1.544 0,-1.033 0.50300001,-1.544 1.24200001,-1.544 m -1.87400001,5.867 c 0.225,0.394 0.66400001,0.702 1.13500001,0.702 0.685,0 1.028,-0.479 1.59599999,-0.479 0.289,0 0.546,0.149 0.717,0.362 l 0.289,-0.724 c -0.246,-0.457 -0.706,-0.713 -1.12399999,-0.713 -0.632,0 -1.114,0.479 -1.607,0.479 -0.31,0 -0.51300001,-0.128 -0.71700001,-0.373 z m 1.87400001,-7.049 c -1.76700001,0 -2.72000001,1.235 -2.72000001,2.726 0,1.49 0.953,2.726 2.72000001,2.726 1.79899999,0 2.73099999,-1.236 2.73099999,-2.726 0,-1.491 -0.932,-2.726 -2.73099999,-2.726 m -5.18270261,0.1599 v 3.088 c 0,0.649 -0.289,1.022 -0.921,1.022 -0.525,0 -0.9,-0.277 -1.114,-0.49 v -3.62 h -1.446 v 7.453 h 1.446 v -2.747 h 0.022 c 0.278,0.256 0.856,0.586 1.542,0.586 1.231,0 1.917,-0.831 1.917,-2.066 v -3.226 z m -8.5453949,5.1321 0.193,-0.5 h 0.021 c 0.3,0.265 0.835,0.66 1.649,0.66 1.21,0 1.9069997,-0.82 1.9069997,-2.055 v -3.237 H -11.1685 v 3.088 c 0,0.67 -0.289,1.022 -0.921,1.022 -0.493,0 -0.889,-0.267 -1.114,-0.437 v -3.673 h -1.446 v 5.132 z m -3.951602,1.98e-4 h 1.446 v -5.132 h -1.446 z m 0.728,2.47 c 0.514,0 0.846,-0.33 0.846,-0.788 0,-0.458 -0.332,-0.788 -0.846,-0.788 -0.503,0 -0.835,0.33 -0.835,0.788 0,0.458 0.332,0.788 0.835,0.788 m -9.273304,-2.470198 0.182,-0.5 h 0.032 c 0.3,0.265 0.836,0.66 1.66,0.66 0.761,0 1.264,-0.288 1.575,-0.788 h 0.021 c 0.321,0.266 0.825,0.788 1.885,0.788 1.253,0 1.896,-0.82 1.896,-2.055 v -3.237 h -1.446 v 3.088 c 0,0.67 -0.214,1.022 -0.9,1.022 -0.514,0 -0.91,-0.288 -1.167,-0.49 0.032,-0.117 0.043,-0.256 0.043,-0.383 v -3.237 h -1.446 v 3.088 c 0,0.649 -0.225,1.022 -0.91,1.022 -0.515,0 -0.879,-0.256 -1.125,-0.437 v -3.673 h -1.446 v 5.132 z m -4.593495,-2.917605 c -0.953,0 -1.317,-0.245 -1.317,-0.628 0,-0.426 0.246,-0.618 0.685,-0.618 0.375,0 0.878,0.139 1.178,0.352 v 0.894 z m 1.96,-1.097 c 0,-0.159 0.011,-0.191 0.171,-0.191 h 0.375 v -0.98 c -0.225,-0.042 -0.439,-0.074 -0.75,-0.074 -0.557,0 -0.846,0.213 -1.028,0.607 h -0.021 c -0.343,-0.288 -1.029,-0.639 -1.66,-0.639 -1.157,0 -1.746,0.681 -1.746,1.618 0,1.139 0.728,1.683 2.549,1.683 h 0.696 v 0.234 c 0,0.638 -0.568,0.734 -0.878,0.734 -0.568,0 -1.21,-0.149 -1.714,-0.372 l -0.342,1.096 c 0.546,0.245 1.328,0.458 2.131,0.458 1.489,0 2.217,-0.756 2.217,-2.076 z m -7.442597,6.282402 c 0.675,0 1.392,-0.16 2.067,-0.469 l -0.396,-1.171 c -0.611,0.267 -1.071,0.373 -1.671,0.373 -1.296,0 -1.992,-1.011 -1.992,-2.513 0,-1.501 0.696,-2.513 1.992,-2.513 0.6,0 1.06,0.107 1.671,0.373 l 0.396,-1.171 c -0.675,-0.309 -1.392,-0.469 -2.067,-0.469 -2.292,0 -3.545,1.523 -3.545,3.78 0,2.257 1.253,3.78 3.545,3.78" /><path
       d="m 0,0 c 11.686,0 21.129,9.443 21.129,21.129 0,11.686 -9.443,21.13 -21.129,21.13 -11.686,0 -21.129,-9.444 -21.129,-21.13 C -21.129,9.443 -11.686,0 0,0 m -6.109,11.598 c -0.118,0 -0.177,0.118 -0.236,0.235 l -9.738,19.625 c 1.741,2.656 4.072,4.899 6.876,6.463 l 6.994,-15.582 c 0.118,-0.295 0.295,-0.354 0.531,-0.354 h 3.364 c 0.236,0 0.413,0.059 0.531,0.354 l 6.994,15.582 c 2.804,-1.564 5.135,-3.807 6.877,-6.463 L 6.345,11.833 C 6.286,11.716 6.227,11.598 6.109,11.598 c -0.119,0 -0.177,0.118 -0.237,0.235 L 2.213,20.215 C 2.095,20.51 1.918,20.569 1.682,20.569 h -3.364 c -0.236,0 -0.413,-0.059 -0.531,-0.354 l -3.66,-8.382 C -5.932,11.716 -5.991,11.598 -6.109,11.598 M 0,25.467 c -0.118,0 -0.177,0.119 -0.236,0.236 l -6.02,13.516 c 1.948,0.709 4.072,1.092 6.256,1.092 2.184,0 4.308,-0.383 6.256,-1.092 L 0.236,25.703 C 0.177,25.586 0.118,25.467 0,25.467 M 0,1.948 c -10.506,0 -19.123,8.676 -19.123,19.181 0,2.361 0.413,4.604 1.21,6.699 L -6.728,5.312 c 0.147,-0.297 0.324,-0.531 0.678,-0.531 0.354,0 0.549,0.24 0.679,0.531 l 5.135,11.538 c 0.059,0.118 0.118,0.237 0.236,0.237 0.118,0 0.177,-0.119 0.236,-0.237 L 5.371,5.312 C 5.5,5.021 5.696,4.781 6.05,4.781 c 0.354,0 0.531,0.235 0.678,0.531 l 11.185,22.516 c 0.797,-2.095 1.21,-4.338 1.21,-6.699 C 19.123,10.624 10.506,1.948 0,1.948"
       style="display:inline;fill:#001e50;fill-opacity:1;fill-rule:nonzero;stroke:none"
       id="path21553"
       transform="matrix(1.3333333,0,0,-1.3333333,-400.49517,-170.30168)"
       clip-path="none" /></g></svg>
