<?xml version="1.0" encoding="UTF-8"?>
<svg id="Layer_1" data-name="Layer 1" xmlns="http://www.w3.org/2000/svg" viewBox="0 0 288 288">
  <defs>
    <style>
      .cls-1 {
        fill: #fff;
      }

      .cls-2 {
        fill: #006fcf;
      }
    </style>
  </defs>
  <polygon class="cls-1" points="262.14 262.41 144.83 262.41 25.86 262.41 25.86 142.89 25.86 25.59 143.17 25.59 262.14 25.59 262.14 144 262.14 262.41"/>
  <path class="cls-2" d="M262.14,262.41v-37.63h-28.77l-14.94-16.05-14.94,16.05h-94.07v-75.81h-30.43l37.63-85.21h37.07l12.73,29.33v-29.33h44.82l7.75,22.13,7.75-22.13h34.86V25.59H25.86v236.83h236.27ZM238.34,215.38h23.79l-31.54-33.2,31.54-32.65h-23.24l-19.37,21.03-19.37-21.03h-23.79l30.99,33.2-30.99,33.2h23.24l19.37-21.58,19.37,21.03h0ZM243.88,182.18l18.26,19.37v-38.73l-18.26,19.37h0ZM138.19,199.89v-10.51h37.63v-14.94h-37.63v-10.51h38.18v-15.49h-55.89v66.4h56.44v-15.49h-38.73v.55ZM244.43,139.57h17.71v-66.4h-27.67l-14.94,41.5-14.94-41.5h-28.22v66.4h17.71v-46.48l17.15,46.48h16.05l17.15-46.48v46.48h0ZM156.45,139.57h20.47l-29.33-66.4h-23.24l-29.33,66.4h19.92l5.53-13.28h30.43l5.53,13.28h0ZM144.28,111.35h-17.71l8.85-21.58,8.85,21.58h0Z"/>
</svg>